<?xml version="1.0" standalone="no"?><!DOCTYPE svg PUBLIC "-//W3C//DTD SVG 1.1//EN" "http://www.w3.org/Graphics/SVG/1.1/DTD/svg11.dtd"><svg t="1663016075038" class="icon" viewBox="0 0 1024 1024" version="1.1" xmlns="http://www.w3.org/2000/svg" p-id="2217" xmlns:xlink="http://www.w3.org/1999/xlink" width="200" height="200"><path d="M682.666667 42.666667a42.666667 42.666667 0 0 1 42.666666 42.666666v21.333334h128a42.666667 42.666667 0 0 1 42.666667 42.666666v789.333334a42.666667 42.666667 0 0 1-42.666667 42.666666H170.666667a42.666667 42.666667 0 0 1-42.666667-42.666666V149.333333a42.666667 42.666667 0 0 1 42.666667-42.666666h128V85.333333a42.666667 42.666667 0 0 1 42.666666-42.666666h341.333334zM298.666667 170.666667H192v746.666666h640V170.666667h-106.666667v21.333333a42.666667 42.666667 0 0 1-42.666666 42.666667H341.333333a42.666667 42.666667 0 0 1-42.666666-42.666667V170.666667z m202.666666 448a32 32 0 0 1 0 64h-170.666666a32 32 0 0 1 0-64h170.666666z m192-192a32 32 0 0 1 0 64h-362.666666a32 32 0 0 1 0-64h362.666666zM661.333333 106.666667H362.666667v64h298.666666V106.666667z" p-id="2218"></path></svg>