<?xml version="1.0" standalone="no"?><!DOCTYPE svg PUBLIC "-//W3C//DTD SVG 1.1//EN" "http://www.w3.org/Graphics/SVG/1.1/DTD/svg11.dtd"><svg t="1663609253799" class="icon" viewBox="0 0 1024 1024" version="1.1" xmlns="http://www.w3.org/2000/svg" p-id="2184" xmlns:xlink="http://www.w3.org/1999/xlink" width="200" height="200"><path d="M831.96299999 736.047l-640.12399999 0c-17.67299999 0-32 14.327-32 32s14.327 32 32 32L831.963 800.047c17.67299999 0 32-14.327 32-32s-14.327-32-32.00000001-32zM191.839 544.831L585.447 544.831c17.67299999 0 32-14.327 32-32s-14.327-32-32-32l-393.608 0c-17.67299999 0-32 14.327-31.99999999 32s14.327 32 31.99999999 32zM191.839 288.198L831.963 288.198c17.67299999 0 32-14.327 32-32s-14.327-32-32-32l-640.124 0c-17.67299999 0-32 14.327-32 32s14.327 32 32 32zM704.972 672.406l160-160-160-160z" p-id="2185"></path></svg>