<svg viewBox="0 0 238.41 157.51" xmlns:xlink="http://www.w3.org/1999/xlink" xmlns="http://www.w3.org/2000/svg"><defs><style>.cls-1{fill:url(#未命名的渐变_217);}.cls-2{fill:url(#未命名的渐变_19);}.cls-3{fill:url(#未命名的渐变_19-2);}.cls-4{fill:url(#未命名的渐变_211);}.cls-5{fill:url(#未命名的渐变_162);}.cls-6{fill:url(#未命名的渐变_180);}.cls-7{fill:url(#未命名的渐变_194);}.cls-8{fill:url(#未命名的渐变_211-2);}.cls-9{fill:url(#未命名的渐变_162-2);}.cls-10{fill:url(#未命名的渐变_194-2);}.cls-11{fill:url(#未命名的渐变_164);}.cls-12{fill:url(#未命名的渐变_164-2);}.cls-13{fill:#feb99b;}.cls-14{fill:#343434;}.cls-15{fill:#ffd5c3;}.cls-16{fill:#5c5c5c;}.cls-17{fill:#3e3e3e;}.cls-18{fill:#301b20;}.cls-19{fill:#fed4c2;}.cls-20{fill:url(#未命名的渐变_18);}.cls-21{fill:url(#未命名的渐变_18-2);}.cls-22{fill:url(#未命名的渐变_18-3);}.cls-23{fill:#007adc;}</style><linearGradient gradientUnits="userSpaceOnUse" y2="89.11" x2="119.2" y1="157.51" x1="119.2" id="未命名的渐变_217"><stop stop-color="#fff" offset="0"></stop><stop stop-color="#fdfeff" offset="0.38"></stop><stop stop-color="#f6fafe" offset="0.53"></stop><stop stop-color="#e9f4fc" offset="0.65"></stop><stop stop-color="#d8eaf9" offset="0.75"></stop><stop stop-color="#c1def6" offset="0.84"></stop><stop stop-color="#a4cff1" offset="0.91"></stop><stop stop-color="#83beec" offset="0.98"></stop><stop stop-color="#7ab9eb" offset="1"></stop></linearGradient><linearGradient gradientUnits="userSpaceOnUse" y2="99.9" x2="24.2" y1="109.01" x1="24.2" id="未命名的渐变_19"><stop stop-color="#fff" offset="0"></stop><stop stop-color="#7ab9eb" offset="1"></stop></linearGradient><linearGradient xlink:href="#未命名的渐变_19" y2="77.58" x2="210.66" y1="91.33" x1="210.66" id="未命名的渐变_19-2"></linearGradient><linearGradient gradientUnits="userSpaceOnUse" y2="93.76" x2="52.11" y1="109.76" x1="58.57" id="未命名的渐变_211"><stop stop-opacity="0.5" stop-color="#5caae8" offset="0"></stop><stop stop-opacity="0.31" stop-color="#99caf1" offset="0.29"></stop><stop stop-opacity="0.14" stop-color="#d0e7f8" offset="0.6"></stop><stop stop-opacity="0.04" stop-color="#f2f8fd" offset="0.85"></stop><stop stop-opacity="0" stop-color="#fff" offset="1"></stop></linearGradient><linearGradient gradientUnits="userSpaceOnUse" gradientTransform="matrix(1, 0, 0, -1, 0, -2491.22)" y2="-2517.17" x2="147.36" y1="-2632.18" x1="147.36" id="未命名的渐变_162"><stop stop-color="#7ab9eb" offset="0"></stop><stop stop-color="#83beed" offset="0.03"></stop><stop stop-color="#a3cff2" offset="0.14"></stop><stop stop-color="#bedcf6" offset="0.25"></stop><stop stop-color="#d2e7f9" offset="0.38"></stop><stop stop-color="#e0eefb" offset="0.53"></stop><stop stop-color="#e8f3fd" offset="0.71"></stop><stop stop-color="#ebf4fd" offset="1"></stop></linearGradient><linearGradient gradientUnits="userSpaceOnUse" y2="44.35" x2="174.99" y1="44.35" x1="58.11" id="未命名的渐变_180"><stop stop-color="#5caae8" offset="0"></stop><stop stop-color="#71b5eb" offset="0.08"></stop><stop stop-color="#8bc2ef" offset="0.2"></stop><stop stop-color="#9fcdf1" offset="0.34"></stop><stop stop-color="#add4f3" offset="0.5"></stop><stop stop-color="#b5d9f5" offset="0.69"></stop><stop stop-color="#b8daf5" offset="1"></stop></linearGradient><linearGradient gradientUnits="userSpaceOnUse" y2="42.51" x2="148.38" y1="71.67" x1="156.19" id="未命名的渐变_194"><stop stop-color="#99c9f1" offset="0"></stop><stop stop-color="#b8d9f5" offset="0.11"></stop><stop stop-color="#d2e7f9" offset="0.23"></stop><stop stop-color="#e6f2fc" offset="0.36"></stop><stop stop-color="#f4f9fe" offset="0.51"></stop><stop stop-color="#fcfeff" offset="0.7"></stop><stop stop-color="#fff" offset="1"></stop></linearGradient><linearGradient xlink:href="#未命名的渐变_211" y2="66.15" x2="144.68" y1="42.95" x1="133.87" id="未命名的渐变_211-2"></linearGradient><linearGradient xlink:href="#未命名的渐变_162" y2="-2508.49" x2="88.92" y1="-2611.39" x1="88.92" id="未命名的渐变_162-2"></linearGradient><linearGradient xlink:href="#未命名的渐变_194" y2="40.73" x2="84.42" y1="74.53" x1="75.36" id="未命名的渐变_194-2"></linearGradient><linearGradient gradientUnits="userSpaceOnUse" y2="88.17" x2="86.3" y1="91.67" x1="85.74" id="未命名的渐变_164"><stop stop-color="#5caae8" offset="0"></stop><stop stop-color="#5eabe8" offset="0"></stop><stop stop-color="#83beee" offset="0.1"></stop><stop stop-color="#a3cff2" offset="0.2"></stop><stop stop-color="#bedcf6" offset="0.31"></stop><stop stop-color="#d2e7f9" offset="0.43"></stop><stop stop-color="#e0eefb" offset="0.56"></stop><stop stop-color="#e8f3fd" offset="0.73"></stop><stop stop-color="#ebf4fd" offset="1"></stop></linearGradient><linearGradient xlink:href="#未命名的渐变_164" y2="87.83" x2="149.51" y1="91.35" x1="150.45" id="未命名的渐变_164-2"></linearGradient><linearGradient gradientUnits="userSpaceOnUse" gradientTransform="translate(-40.9 -1.02) rotate(2)" y2="14.6" x2="195.35" y1="22" x1="183.51" id="未命名的渐变_18"><stop stop-color="#007adc" offset="0"></stop><stop stop-color="#0ab0ed" offset="1"></stop></linearGradient><linearGradient xlink:href="#未命名的渐变_18" gradientTransform="matrix(1, 0, 0, 1, 0, 0)" y2="24.67" x2="149.73" y1="24.67" x1="127.28" id="未命名的渐变_18-2"></linearGradient><linearGradient xlink:href="#未命名的渐变_18" gradientTransform="matrix(1, 0, 0, 1, 0, 0)" y2="20.21" x2="145.58" y1="32.85" x1="123.69" id="未命名的渐变_18-3"></linearGradient></defs><title>列表暂时还没有内容</title><g id="图层_2"><g id="图层_1-2"><ellipse ry="34.2" rx="119.2" cy="123.31" cx="119.2" class="cls-1"></ellipse><circle r="4.56" cy="104.45" cx="24.2" class="cls-2"></circle><circle r="6.87" cy="84.45" cx="210.66" class="cls-3"></circle><path d="M60.43,93.42c-5.5,1-10.72,2.07-15.6,3.27L60.43,109Z" class="cls-4"></path><path d="M171.63,108.53l-51.89,15V50.19L175,42.75v61.31A4.65,4.65,0,0,1,171.63,108.53Z" class="cls-5"></path><polygon points="58.11 43.81 115.48 38.5 174.99 42.75 119.74 50.19 58.11 43.81" class="cls-6"></polygon><polygon points="119.74 50.19 129.3 78.88 184.55 62.94 174.99 42.75 119.74 50.19" class="cls-7"></polygon><polygon points="128.36 45.52 137.34 67.68 150.22 63.57 143.92 47.25 135.07 48.35 128.36 45.52" class="cls-8"></polygon><path d="M119.74,123.5l-58.07-14A4.65,4.65,0,0,1,58.11,105V43.81l61.63,6.38Z" class="cls-9"></path><polygon points="58.11 43.81 40.04 65.07 105.92 78.88 119.74 50.19 58.11 43.81" class="cls-10"></polygon><path d="M68.94,85.42l34.69,5.69A1.67,1.67,0,0,1,105,93h0a1.67,1.67,0,0,1-1.93,1.38L68.4,88.72A1.67,1.67,0,0,1,67,86.8h0A1.67,1.67,0,0,1,68.94,85.42Z" class="cls-11"></path><path d="M167.41,86.8l-34,8.81a1.67,1.67,0,0,1-2-1.2h0a1.67,1.67,0,0,1,1.2-2l34-8.81a1.67,1.67,0,0,1,2,1.2h0A1.67,1.67,0,0,1,167.41,86.8Z" class="cls-12"></path><rect transform="translate(58.77 -64.36) rotate(32.69)" height="3.37" width="2.79" y="66.33" x="137.73" class="cls-13"></rect><path d="M152.15,44.38s-7.54,5-13.76,22l2.66,1.7s16.39-18.47,18.16-23.12C159.21,44.93,152.92,41.21,152.15,44.38Z" class="cls-14"></path><path d="M137.89,66.9c-.24-.18-.75,0-1.31,1s-1.06,1.37-.32,1.94,5.13,3.32,6.37,4.11c.42.27.59-.23.64-.34.22-.51.33-1.42-.94-2.41-.88-.81-1.24-2.37-1.67-2.66s-.89,0-1.58-.48S138.3,67.21,137.89,66.9Z"></path><rect height="3.37" width="2.79" y="69.95" x="153.59" class="cls-15"></rect><path d="M156.62,70.63h-3.16c-3.46-17-1.38-24.71-1.38-24.71s-6.41,1.92-18.26,2.71c0,0-4.83.39-5.69-5.26V37.83l28.82-.71s2.28-.08,2.93,3.81S156.62,70.63,156.62,70.63Z" class="cls-16"></path><path d="M153.33,71.36c-.3,0-.61.44-.56,1.56s-.15,1.72.78,1.81,6.11,0,7.58,0c.5,0,.38-.51.36-.63-.09-.55-.49-1.37-2.09-1.53-1.18-.21-2.32-1.33-2.84-1.34s-.74.5-1.59.45A15.45,15.45,0,0,1,153.33,71.36Z" class="cls-17"></path><rect height="6.47" width="3.51" y="7.03" x="133.91" class="cls-13"></rect><path d="M139.86,3.18s.68,5.8-.86,6.33c-1.29.44-4.51-.82-5.15-1.89-.76-1.29.13-4,.13-4l3.19-2.1,2.56.81Z" class="cls-15"></path><path d="M133.91,8.4s.5.07.58-1a.16.16,0,0,0-.1-.16,1.16,1.16,0,0,1-.67-1.64c.39-1.16,1.32-.27,1.6.29a.06.06,0,0,0,.12,0c.13-.9.67-3.47,2.5-3.58,2.21-.14,1.86,1.81,1.86,1.81s.31-.12.28-1.57c0,0,.4.34.2,1.23,0,0,.26-.06.28-.68a2.41,2.41,0,0,0-.8-1.86A5.33,5.33,0,0,0,135.33.06a2.2,2.2,0,0,0-1.27.6,1.85,1.85,0,0,0-.42.61,2.14,2.14,0,0,0-1.93,2c-.08,1.77.44,3,1.18,3.57A2.74,2.74,0,0,1,133.91,8.4Z" class="cls-18"></path><path d="M161.57,29.15c-1.31.19-1.71-.17-1.82-.35a.09.09,0,0,1,0-.13,1,1,0,0,0,.38-.24.19.19,0,0,0-.11-.31L158,27.8l-.47,3.37a12.16,12.16,0,0,0,3.26-.13,1.71,1.71,0,0,0,.91-.44,1,1,0,0,0,.18-1.32A.29.29,0,0,0,161.57,29.15Z" class="cls-19"></path><path d="M141.79,14.27l5.32,8.84a1.38,1.38,0,0,0,.6.46L158,27.64l-.43,3.63-13.1-4.18a1.38,1.38,0,0,1-.61-.4l-7.16-8" class="cls-20"></path><path d="M153.25,31.81c-1.3.23-1.71-.11-1.83-.28a.09.09,0,0,1,0-.13,1,1,0,0,0,.37-.25.19.19,0,0,0-.13-.31l-2.09-.25L149.26,34a12.16,12.16,0,0,0,3.26-.24,1.71,1.71,0,0,0,.89-.47,1,1,0,0,0,.13-1.33A.29.29,0,0,0,153.25,31.81Z" class="cls-19"></path><path d="M149.73,30.45l-7.41-2.63V15s-.48-3.37-4.9-3.74c0,0-.06,1.84-1,1.92s-2.54-2.91-2.54-2.91-6.22,2.46-6.6,4.92h0v0a1.48,1.48,0,0,0,0,.35V39.07h15v-7l7.11,2Z" class="cls-21"></path><path d="M149.73,30.45l-7.41-2.63V15s-.48-3.37-4.9-3.74c0,0-.06,1.84-1,1.92s-2.54-2.91-2.54-2.91-6.22,2.46-6.6,4.92h0v0a1.48,1.48,0,0,0,0,.35V39.07h15v-7l7.11,2Z" class="cls-22"></path><path d="M142.32,27.82h0l-1.81-1.13a9.64,9.64,0,0,1-2-1.71L131,16.72l7.73,9.59a1.38,1.38,0,0,0,.61.44Z" class="cls-23"></path><path d="M135.56,30l-7.43-7.78,5.79,7.26a7.57,7.57,0,0,0,3.43,2.06l5,.56-6.14-1.72A1.38,1.38,0,0,1,135.56,30Z" class="cls-23"></path></g></g></svg>