<svg viewBox="0 0 1620 1028" xmlns="http://www.w3.org/2000/svg"><g id="a"></g><g id="b"><g id="c"><g><path fill="#e8f2fa" d="M90.57,1028l516.59-2.78,137.7-.04,45.62-.02,137.96-.04,630.3-.18s144.17-191.33-9.83-373.06c-159.67-188.41-237.3-34.97-286.38-300.18C1138.99-315.88-82.42,72.67,237.95,640.76c115.35,204.55-227.06,95.83-147.38,387.24Z"></path><g><path fill="#a8ccff" d="M565.82,888.67l-2.79-1.58c-2.98-1.69-4.08-5.58-2.45-8.66l12.83-24.26c1.63-3.09,5.39-4.22,8.37-2.53l4,2.27c.58,.33,.8,1.09,.48,1.7-.32,.6-1.05,.83-1.64,.5l-4-2.27c-1.81-1.03-4.1-.34-5.09,1.54l-12.83,24.26c-.99,1.88-.33,4.24,1.49,5.27l2.79,1.58c1.82,1.03,4.1,.34,5.09-1.54l8.52-16.1c.32-.61,1.05-.83,1.64-.5,.58,.33,.8,1.09,.48,1.69l-8.52,16.1c-1.63,3.09-5.39,4.22-8.37,2.53Z"></path><path fill="#a8ccff" d="M553.91,914.15l-5.01-2.84c-4.65-2.63-6.21-8.97-3.48-14.13l19.29-36.47c.32-.6,1.05-.83,1.64-.5,.58,.33,.8,1.09,.48,1.69l-19.29,36.47c-2.09,3.95-.95,8.76,2.53,10.74l5.01,2.84c3.48,1.97,8.01,.37,10.1-3.58l21.98-41.54c2.09-3.95,.95-8.76-2.53-10.74-.58-.33-.8-1.09-.48-1.7,.32-.6,1.05-.83,1.64-.5,4.65,2.64,6.21,8.97,3.48,14.13l-21.98,41.54c-2.73,5.16-8.73,7.21-13.38,4.57Z"></path></g><g><rect opacity=".6" fill="#fff" ry="47.87" rx="47.87" height="590.57" width="669.39" y="163.19" x="394.27"></rect><path fill="#5c9cf4" d="M430.01,163.19h597.91c19.73,0,35.74,16.01,35.74,35.74v29.79H394.27v-29.79c0-19.73,16.01-35.74,35.74-35.74Z"></path><g><path fill="#dae6ff" d="M421.34,195.57c0-4.33,3.39-7.83,7.57-7.83s7.57,3.51,7.57,7.83-3.39,7.83-7.57,7.83-7.57-3.51-7.57-7.83Z"></path><path fill="#dae6ff" d="M453.12,195.57c0-4.33,3.39-7.83,7.57-7.83s7.57,3.51,7.57,7.83-3.39,7.83-7.57,7.83-7.57-3.51-7.57-7.83Z"></path><path fill="#dae6ff" d="M484.89,195.57c0-4.33,3.39-7.83,7.57-7.83s7.57,3.51,7.57,7.83-3.39,7.83-7.57,7.83-7.57-3.51-7.57-7.83Z"></path></g><rect opacity=".5" fill="#c8dffd" height="196.38" width="189.75" y="280.72" x="447.32"></rect><path opacity=".5" fill="#7798f8" d="M839.6,295.36h-150.93c-3.96,0-7.17-3.32-7.17-7.42h0c0-4.1,3.21-7.42,7.17-7.42h150.93c3.96,0,7.17,3.32,7.17,7.42h0c0,4.1-3.21,7.42-7.17,7.42Z"></path><path opacity=".5" fill="#7798f8" d="M1020.08,285.41h-150.93c-3.96,0-7.17-3.32-7.17-7.42h0c0-4.1,3.21-7.42,7.17-7.42h150.93c3.96,0,7.17,3.32,7.17,7.42h0c0,4.1-3.21,7.42-7.17,7.42Z"></path><g opacity=".3"><path fill="#b8d0fc" d="M869.47,352.5h-183.33c-2.57,0-4.65-2.15-4.65-4.81h0c0-2.66,2.08-4.81,4.65-4.81h183.33c2.57,0,4.65,2.15,4.65,4.81h0c0,2.66-2.08,4.81-4.65,4.81Z"></path><path fill="#b8d0fc" d="M939.17,352.5h-48.39c-2.57,0-4.65-2.15-4.65-4.81h0c0-2.66,2.08-4.81,4.65-4.81h48.39c2.57,0,4.65,2.15,4.65,4.81h0c0,2.66-2.08,4.81-4.65,4.81Z"></path><path fill="#b8d0fc" d="M755.31,382.33h-69.17c-2.57,0-4.65-2.15-4.65-4.81h0c0-2.66,2.08-4.81,4.65-4.81h69.17c2.57,0,4.65,2.15,4.65,4.81h0c0,2.66-2.08,4.81-4.65,4.81Z"></path><path fill="#b8d0fc" d="M867.35,382.33h-94.78c-2.57,0-4.65-2.15-4.65-4.81h0c0-2.66,2.08-4.81,4.65-4.81h94.78c2.57,0,4.65,2.15,4.65,4.81h0c0,2.66-2.08,4.81-4.65,4.81Z"></path><path fill="#b8d0fc" d="M939.17,382.33h-48.39c-2.57,0-4.65-2.15-4.65-4.81h0c0-2.66,2.08-4.81,4.65-4.81h48.39c2.57,0,4.65,2.15,4.65,4.81h0c0,2.66-2.08,4.81-4.65,4.81Z"></path><path fill="#b8d0fc" d="M780,408.13h-93.86c-2.57,0-4.65-2.15-4.65-4.81h0c0-2.66,2.08-4.81,4.65-4.81h93.86c2.57,0,4.65,2.15,4.65,4.81h0c0,2.66-2.08,4.81-4.65,4.81Z"></path><path fill="#b8d0fc" d="M959.23,408.13h-153.51c-2.57,0-4.65-2.15-4.65-4.81h0c0-2.66,2.08-4.81,4.65-4.81h153.51c2.57,0,4.65,2.15,4.65,4.81h0c0,2.66-2.08,4.81-4.65,4.81Z"></path></g><g opacity=".3"><path fill="#b8d0fc" d="M869.47,447.27h-183.33c-2.57,0-4.65-2.15-4.65-4.81h0c0-2.66,2.08-4.81,4.65-4.81h183.33c2.57,0,4.65,2.15,4.65,4.81h0c0,2.66-2.08,4.81-4.65,4.81Z"></path><path fill="#b8d0fc" d="M939.17,447.27h-48.39c-2.57,0-4.65-2.15-4.65-4.81h0c0-2.66,2.08-4.81,4.65-4.81h48.39c2.57,0,4.65,2.15,4.65,4.81h0c0,2.66-2.08,4.81-4.65,4.81Z"></path><path fill="#b8d0fc" d="M755.31,477.11h-69.17c-2.57,0-4.65-2.15-4.65-4.81h0c0-2.66,2.08-4.81,4.65-4.81h69.17c2.57,0,4.65,2.15,4.65,4.81h0c0,2.66-2.08,4.81-4.65,4.81Z"></path><path fill="#b8d0fc" d="M867.35,477.11h-94.78c-2.57,0-4.65-2.15-4.65-4.81h0c0-2.66,2.08-4.81,4.65-4.81h94.78c2.57,0,4.65,2.15,4.65,4.81h0c0,2.66-2.08,4.81-4.65,4.81Z"></path></g><path fill="#b8d0fc" d="M532.4,310h19.6l52.94,125.42h-22.35l-12.2-30.07h-56.9l-12.38,30.07h-21.66l52.94-125.42Zm30.25,75.97l-20.8-49.81-20.63,49.81h41.43Z"></path><g><rect fill="#ff912b" height="21.18" width="106" y="516.67" x="447.32"></rect><rect fill="#fc7600" height="21.18" width="106" y="537.84" x="447.32"></rect><rect fill="#4b49f2" height="21.18" width="106" y="559.02" x="447.32"></rect></g><g><path fill="#b8d0fc" d="M631.42,528.66h-58.32c-2.44,0-4.42-2.05-4.42-4.57h0c0-2.53,1.98-4.57,4.42-4.57h58.32c2.44,0,4.42,2.05,4.42,4.57h0c0,2.53-1.98,4.57-4.42,4.57Z"></path><path fill="#b8d0fc" d="M611.77,544.78h-38.67c-2.44,0-4.42-2.05-4.42-4.57h0c0-2.53,1.98-4.57,4.42-4.57h38.67c2.44,0,4.42,2.05,4.42,4.57h0c0,2.53-1.98,4.57-4.42,4.57Z"></path></g><g><rect fill="#ff912b" height="43.27" width="106" y="626.17" x="447.32"></rect><rect fill="#c23b35" height="30.95" width="106" y="658.75" x="447.32"></rect><polygon fill="#4b49f2" points="447.32 626.17 485.35 659.22 447.32 689.7 447.32 626.17"></polygon></g><g><path fill="#b8d0fc" d="M631.42,638.16h-58.32c-2.44,0-4.42-2.05-4.42-4.57h0c0-2.53,1.98-4.57,4.42-4.57h58.32c2.44,0,4.42,2.05,4.42,4.57h0c0,2.53-1.98,4.57-4.42,4.57Z"></path><path fill="#b8d0fc" d="M611.77,654.28h-38.67c-2.44,0-4.42-2.05-4.42-4.57h0c0-2.53,1.98-4.57,4.42-4.57h38.67c2.44,0,4.42,2.05,4.42,4.57h0c0,2.53-1.98,4.57-4.42,4.57Z"></path></g></g><g><path fill="#1e3865" d="M1070.42,216.68s2.76,34.05-4.74,33.54c-7.5-.52-22.3-15.51-52.16-13.07-29.87,2.44-66.41,9.2-88.5-31.25-22.09-40.46,28.25-52.1,28.25-52.1l117.15,62.89h0Z"></path><polygon fill="#25468f" points="1006.93 214.18 1157.42 226.99 1160.55 220.06 1016.27 109.83 870.53 92.21 867.73 98.41 1006.93 214.18 1006.93 214.18"></polygon><g><path fill="#ff912b" d="M1109.35,331.48c-.89-3.21-4.12-5.06-7.22-4.14-3.1,.92-4.89,4.26-4,7.47,.89,3.21,4.12,5.06,7.21,4.14,3.1-.92,4.89-4.26,4-7.47h0Z"></path><path fill="#ff912b" d="M1104.33,333.16c6.04-.49,7.45,56.36,7.45,56.36,0,0-3.94,1.92-5.87,1.47-1.93-.45-2.92-8.13-2.92-8.13l-.19,8.05s-6.62,.24-8.92-1.43c0,0,.9-55.54,10.45-56.31h0Z"></path></g><polygon fill="#ff912b" points="1106.3 334.44 1105.21 210.25 1104.43 209.65 1025.82 149.46 1023 153.42 1100.82 213 1102.58 334.23 1106.3 334.44"></polygon></g><g><g><g><path fill="#ffebd8" d="M877.1,790.35h315.99c35.47,0,64.27,28.8,64.27,64.27h0c0,36.28-29.45,65.73-65.73,65.73h-314.53v-130.01h0Z"></path><path fill="#5c9cf4" d="M1540.98,843.84v19.56c0,10.45-2.54,20.24-6.97,28.65-8.91,16.93-25.48,28.31-44.45,28.31H866.92c-4.12,0-7.46-3.7-7.46-8.26v-2.93c0-4.56,3.34-8.26,7.46-8.26h379.55c2.03-2.74,3.82-5.71,5.33-8.87,3.55-7.42,5.56-15.88,5.56-24.86v-24.86c0-4.57-.53-9.01-1.54-13.23-1.7-7.16-4.74-13.71-8.8-19.3h-380.11c-4.12,0-7.46-3.7-7.46-8.26v-2.92c0-4.56,3.34-8.26,7.46-8.26h625.77c22.05,0,40.65,16.38,46.42,38.75,1.21,4.68,1.86,9.63,1.86,14.74Z"></path><path fill="#448de8" d="M1539.12,829.1h-283.29c-1.7-7.16-4.74-13.71-8.8-19.3h-380.11c-4.12,0-7.46-3.7-7.46-8.26v-2.92c0-4.56,3.34-8.26,7.46-8.26h625.77c22.05,0,40.65,16.38,46.42,38.75Z"></path></g><polygon fill="#f9d0b3" points="877.1 855.35 923.21 857.54 877.1 858.85 877.1 855.35"></polygon><polygon fill="#f9d0b3" points="877.1 875.75 986.78 877.93 877.1 879.25 877.1 875.75"></polygon></g><g><g><g><path fill="#ff912b" transform="translate(1935.25 1941.28) rotate(-180)" d="M781.91,920.08h319.29c28.78,0,52.15,23.37,52.15,52.15h0c0,27.03-21.94,48.97-48.97,48.97h-322.47v-101.12h0Z"></path><path fill="#ffebd8" transform="translate(2599.53 1941.28) rotate(-180)" d="M1091.93,920.08h364.55c28.22,0,51.13,22.91,51.13,51.13h0c0,27.59-22.4,49.99-49.99,49.99h-365.68v-101.12h0Z"></path><rect fill="#ff912b" transform="translate(2587.57 2027.28) rotate(180)" ry="7.56" rx="7.56" height="15.12" width="466.19" y="1006.08" x="1060.69"></rect><rect fill="#ff912b" transform="translate(2587.57 1855.29) rotate(180)" ry="7.56" rx="7.56" height="15.12" width="466.19" y="920.08" x="1060.69"></rect></g><polygon fill="#f9d0b3" points="1507.6 970.64 1457.21 972.34 1507.6 973.37 1507.6 970.64"></polygon><polygon fill="#f9d0b3" points="1507.6 947.37 1387.71 949.07 1507.6 950.09 1507.6 947.37"></polygon></g><g><path fill="#5c9cf4" d="M1388.94,948.73s5.14,4.35,6.84,11.49c.3,1.25,.49,2.59,.53,4,.28,9.49,0,30.96,0,30.96l15.17-10.74,15.13,10.74v-29.11c0-5.5-1.3-10.86-3.71-14.36-1.17-1.7-2.59-2.98-4.19-2.98h-29.77Z"></path><path fill="#478be0" d="M1388.94,948.73s5.14,4.35,6.84,11.49l30.4,.43s-1.19-10.23-7.47-11.91h-29.77Z"></path></g></g><g><g><g><path fill="#ffebd8" d="M793.68,642.05h298.47c40.54,0,73.45,32.91,73.45,73.45h0c0,41.46-33.66,75.12-75.12,75.12h-296.8v-148.57h0Z"></path><path fill="#a8ccff" d="M1165.79,699.7v31.97c-.08,13.66-6.19,25.5-15.18,31.84-4.42,3.11-9.54,4.89-14.97,4.89h-351.74c-4.12,0-7.46,4.13-7.46,9.23v3.77c0,5.09,3.34,9.23,7.46,9.23h607.64c17.44,0,32.84-10.71,42.15-27.11,5.87-10.33,9.31-22.91,9.31-36.5v-25.23c0-9.31-1.72-18.12-4.8-25.98-7.81-19.98-24.36-33.75-43.52-33.75H783.89c-4.12,0-7.46,4.12-7.46,9.22v3.77c0,5.1,3.34,9.23,7.46,9.23h352.82c8.43,0,16.06,4.44,21.4,11.53,4.72,6.29,7.63,14.66,7.68,23.89Z"></path><path fill="#9cc3f8" d="M776.43,777.62v3.77c0,5.09,3.34,9.23,7.46,9.23h607.64c17.44,0,32.84-10.71,42.15-27.11h-283.08c-4.42,3.11-9.54,4.89-14.97,4.89h-351.74c-4.12,0-7.46,4.13-7.46,9.23Z"></path></g><polygon fill="#f9d0b3" points="793.68 716.34 838.77 718.83 793.68 720.34 793.68 716.34"></polygon><polygon fill="#f9d0b3" points="793.68 682.14 900.96 684.64 793.68 686.15 793.68 682.14"></polygon></g><g><path fill="#ff912b" d="M899.85,684.14s-7.08,4.71-9.42,12.46c-.41,1.35-.68,2.8-.73,4.33-.39,10.29,0,33.57,0,33.57l-20.9-11.64-20.85,11.64v-31.56c0-5.97,1.79-11.77,5.11-15.57,1.61-1.84,3.56-3.23,5.77-3.23h41.02Z"></path><path fill="#fc7600" d="M899.85,684.14s-7.08,4.71-9.42,12.46l-41.89,.46s1.64-11.09,10.29-12.92h41.02Z"></path></g></g></g><g id="d"><path fill="#f99352" d="M365.91,777.48s65.48,29.52,77.36,28.99c11.89-.54,85.12-23.09,85.12-23.09l-1.86,13.04s-56.52,33.64-76.28,35.55c-19.45,1.88-85.97-18.07-92.4-22.28-6.42-4.21-10.61-27.95,8.05-32.21Z"></path><path fill="#1e3865" d="M356.07,668.87s-24.16-4.75-36.19,4.34c-21.79,16.47-22.96,73.26-31.13,81.71-8.17,8.46-27.86,4.85-29.61,48.62-1.75,43.77,7.84,47.43-3.58,66.97-11.42,19.54,4.83,39.09,4.83,39.09,0,0-6.66-10.79-3.8-18.57,0,0,2.77,17.18,13.32,21.21,10.55,4.03,12.11,6.98,13.79,12.89,0,0,89.97-47.71,90.07-81.56,.1-33.84,17.71-67.37,9.06-82.03,0,0,3.85,6.27,4.32,13.25,0,0,5.19-10.29-3.8-19.87-8.99-9.58,10.55-29.4,7.66-52.35-1.99-15.76-12.67-33.02-34.93-33.71Z"></path><path fill="#ffae73" d="M373.86,809.72c-5.75,4.13-12.96,7.53-22.01,9.7-33.93,8.11-46.93-21.57-51.82-41.94,4.63-2.74,8.98-3.34,11.5-3.65,2.45-.3,5.03-.5,7.17-.61,3.81-3.02,9.49-15.38,10.74-34.57l1.6,.44,26.74,7.58s-1.23,8.8-1.83,17.11c-.46,6.51-.54,12.73,.65,14.25,2.09,.47,3.34,.77,3.34,.77,0,0,0,0,.01,.03,.36,.61,8.12,13.81,13.91,30.9Z"></path><path fill="#f99352" d="M357.78,746.66s-1.23,8.79-1.83,17.11c-15.15-1.57-22.18-16.5-24.92-24.69l26.74,7.57Z"></path><path fill="#ffae73" d="M362.3,754.92s-35.96-2.05-34.38-25.21c1.58-23.16-2-39.02,21.03-38.69,23.03,.33,26.88,9.49,28.17,17.36,1.29,7.86-5.42,46.48-14.82,46.54Z"></path><path fill="#1e3865" d="M376.94,695.43c-5.07-7.38-9.37-6.16-11.87-4.24-18.86-12.63-32.65,2.95-32.65,2.95-3.55,16.44-15.79,25.1-15.79,25.1,0,0,6.26,4.67,21.63,1.78,4.7-.88,9.05-3.97,12.83-7.82-6.84,10.14-15.68,17.16-15.68,17.16,18.63-7.29,27.66-32.7,28.58-35.39,2.05,2.2,6.07,6.95,7.08,11.39,1.38,6.03,7.34,15.46,10.79,15.3,0,0,2.69-15.14-4.91-26.21Z"></path><path fill="#fddbba" d="M289.79,885.39c-3.25-17.18-13.84-85.83-3.25-107.92,3.8-7.94,18.72-8.65,35.1-7.96,5.09,3.4,24.51,16.27,32.48,14.66,.09-.02,.24-.06,.45-.11,3.75-.97,5.17-3.7,2.04-6.06,0,0,8.11-.81,18.18,1.15,5.69,1.11,21.03,9.32,21.03,9.32,0,0-7.73,14.44-19.12,19.43,1.94,17.93-.94,25.84-18.92,67.27-15.19,35.01,2.05,66.53,2.05,66.53,0,0-89.42,74.41-89.92,36.52-.37-28.52,24.03-70.9,19.88-92.86Z"></path><path fill="#eb6600" d="M364.26,1022.64c4.86-.57,9.24-3.32,11.96-7.53,.43-.67,.89-1.39,1.38-2.15,10.18-15.95,14.14-64.78,37.03-116.81,5.58-12.67,25.59-14.94,31.05-29.26,0,0,13.43-46.41-25.71-47.78-39.15-1.37-104.84,129.13-105.88,142.82-1.01,13.26-25.88,69.61,50.17,60.72Z"></path><path fill="#1e3865" d="M519.85,1021.57h-55.72s-2.08-9.2,1.58-15.46c3.24-5.54,2-8.69-.4-13.27,2.52,1.07,5.79,2.04,9.38,1.83,2.78-.17,5.71-1.47,8.29-3.02,2.4,2.83,12.67,14.87,15.88,17.26,3.64,2.71,19.88,1.74,21,12.66Z"></path><path fill="#fc7600" d="M446.96,832.51c3.36,26.03,16.46,108.2,39.57,148.29,7.45,12.92-18.77,20.17-18.91,20.13-3.52-.95-9.38-6.76-12.08-9.28-18.76-17.5-56.85-67.06-56.85-106.79,0-19.37-.33-56.37,13.28-65.78,8.38-5.79,33.66,3.09,34.99,13.43Z"></path><path fill="#ff912b" d="M331.03,1021.57s2.06-2.97,5.67-8.62c4.29-6.72,9.03-19.94,14.78-36.88,6.04-17.79,13.21-39.67,22.17-62.44,2.77-7.03,5.7-14.14,8.82-21.25,5.58-12.67,20.92-10.92,26.37-25.24,0,0,21.3-49.64-17.85-51.01-39.15-1.37-113.54,132.79-117.81,145.78-4.68,14.22-27.51,73.28,57.84,59.66Z"></path><path fill="#25468f" d="M478.95,1021.57h-55.72s-2.08-9.2,1.58-15.46c3.24-5.54,2-8.69-.4-13.27,2.52,1.07,5.79,2.04,9.38,1.83,2.78-.17,5.71-1.47,8.29-3.02,2.4,2.83,12.67,14.87,15.88,17.26,3.64,2.71,19.88,1.74,21,12.66Z"></path><path fill="#fc7600" d="M351.48,976.06c6.04-17.79,13.21-39.67,22.17-62.44-2.34-17.25-7.39-32.34-15.87-38.43,0,0-20.59,66.02-6.3,100.87Z"></path><path fill="#ff912b" d="M414.43,830.66c3.36,26.03,8.08,110.04,31.19,150.13,7.45,12.92-18.77,20.17-18.91,20.13-3.52-.95-9.38-6.76-12.08-9.28-18.76-17.5-56.85-67.06-56.85-106.79,0-19.37,21.97-54.82,35.58-64.22,8.38-5.79,19.74-.31,21.08,10.03Z"></path><path fill="#fff" d="M369.03,741.61s-3.4-1.39-12.97-.59c0,0,.51,3.86,7.56,4.24,4,.22,5.4-3.66,5.4-3.66Z"></path><g><g><polygon fill="#0b3563" points="535.38 756.1 523.83 734.53 498.84 806.7 513.58 823.08 535.38 756.1"></polygon><polygon fill="#0d458e" points="475.06 768.74 451.83 837.42 513.58 823.08 535.38 756.1 475.06 768.74"></polygon><polygon fill="#f1ddcb" points="453.07 833.95 451.98 832 473.96 767 475.06 768.74 453.07 833.95"></polygon><polygon fill="#ffebd8" points="473.96 767 532.51 755.21 535.38 756.1 475.06 768.74 473.96 767"></polygon></g><polygon fill="#f1ddcb" points="535.38 756.1 522.89 735.58 514.93 758.75 532.51 755.21 535.38 756.1"></polygon></g><path fill="#ffae73" d="M492.89,778.68c-2.01-.4-6.32-2.08-10.68-3.32,1.3-1.05,2.75-2.33,3.16-3.65,.78-2.54,1.3-3.36-1.3-2.56-2.59,.81-11.67,5.11-11.67,5.11h.02c-5.16,1.57-9.91,9.11-9.91,9.11,0,0-63.84,23.23-71.52,23.62-11.88,.62-90.97-29.52-90.97-29.52-18.66,4.26-14.48,28-8.05,32.21,6.42,4.21,63.33,25.64,97.05,26.04,17.08,.2,79.22-41.13,79.22-41.13,0,0,7.26-3.44,12.97-2.36,5.71,1.07,18.94,0,21.79-4.83,2.85-4.83-6.74-8.05-10.12-8.73Z"></path><path fill="#fddbba" d="M340.78,792.34s-7.07,23.17-31.36,28.45c0,0-40.11-12.79-20.14-41.07,0,0,19.75-15.19,51.51,12.63Z"></path><path fill="#ffae73" d="M534.34,780.43h0c.02-.64-.05-1.27-.21-1.88,0,0-5.72-9.37-7.6-9.75-5.71-1.17-5.71,6.61-4.5,11.63,.84,3.49,2.99,6.85,4.73,8.66h0l-.23,7.33c9.64-5.48,7.81-15.99,7.81-15.99Z"></path></g><g><path fill="#e8f2fa" d="M199.18,658.1c2.28-58.41-45.02-84.36-93.39-84.36S4.78,586.71,.22,664.38c-2.93,49.97,22.8,80.72,96.92,80.72,24.99,0,44.42-4.08,59.3-11.36l37.05,34.07-18.21-47.09c16.13-15.52,22.92-37.41,23.91-62.62Z"></path><g><path fill="#89b4fd" d="M69.04,638.57v13.65h8.62v-13.65h3.51v31.82h-3.51v-14.87h-8.62v14.87h-3.51v-31.82h3.51Z"></path><path fill="#89b4fd" d="M88.66,659.3c0,7.04,2.69,8.5,5.2,8.5,1.55,0,2.78-.38,3.65-.85l.59,2.64c-1.23,.66-3.1,1.09-4.88,1.09-5.29,0-8.03-4.49-8.03-11.47,0-7.37,3.06-11.99,7.48-11.99s6.3,4.91,6.3,10.01c0,.9-.05,1.51-.09,2.08h-10.22Zm6.93-2.69c.05-4.53-1.6-6.56-3.29-6.56-2.33,0-3.47,3.45-3.6,6.56h6.89Z"></path><path fill="#89b4fd" d="M102.76,637.72h3.51v32.67h-3.51v-32.67Z"></path><path fill="#89b4fd" d="M111.47,637.72h3.51v32.67h-3.51v-32.67Z"></path><path fill="#89b4fd" d="M133.74,658.97c0,8.83-3.92,11.8-7.34,11.8-3.97,0-7.16-3.73-7.16-11.76s3.6-11.8,7.39-11.8,7.12,3.83,7.12,11.76Zm-11,0c0,3.78,.64,8.92,3.83,8.92,3.01,0,3.65-5.34,3.65-8.92s-.64-8.88-3.74-8.88-3.74,5.38-3.74,8.88Z"></path></g></g><g><path fill="#89b4fd" d="M1168.04,482.8c2.09-53.4-41.16-77.13-85.38-77.13s-92.34,11.86-96.51,82.87c-2.68,45.68,20.85,73.79,88.6,73.79,22.85,0,40.61-3.73,54.21-10.38l33.87,31.15-16.64-43.05c14.74-14.19,20.96-34.2,21.86-57.24Z"></path><g><path fill="#fff" d="M1031.45,473.53c1.24-.32,2.66-.52,4.32-.52,2.35,0,4.36,.52,5.75,1.88,1.12,1.08,1.7,2.68,1.7,4.59,0,2.76-1.47,4.91-4.01,5.95v.12c3.01,.84,4.82,3.35,4.82,6.87,0,2.24-.69,4.03-1.85,5.35-1.47,1.72-3.9,2.44-6.87,2.44-1.89,0-3.05-.12-3.86-.28v-26.4Zm2.93,11.02h1.35c2.43,0,4.52-1.92,4.52-4.75,0-2.48-1.12-4.39-4.28-4.39-.69,0-1.23,.08-1.58,.2v8.95Zm0,13.06c.35,.08,.85,.16,1.51,.16,3.05,0,5.06-1.88,5.06-5.35,0-3.71-2.47-5.47-5.25-5.51h-1.31v10.7Z"></path><path fill="#fff" d="M1059.01,490.39c0,7.47-3.32,9.99-6.21,9.99-3.36,0-6.06-3.16-6.06-9.95s3.05-9.99,6.25-9.99,6.02,3.24,6.02,9.95Zm-9.3,0c0,3.2,.54,7.55,3.24,7.55,2.55,0,3.09-4.51,3.09-7.55s-.54-7.51-3.16-7.51-3.16,4.55-3.16,7.51Z"></path><path fill="#fff" d="M1062.33,485.71c0-2.28-.12-3.44-.15-4.99h2.59l.15,2.36h.08c.81-1.56,2.32-2.64,4.28-2.64,2.59,0,4.52,1.96,4.52,6.63v12.98h-2.97v-12.42c0-2.32-.42-4.59-2.59-4.59-1.24,0-2.43,1.08-2.78,3.12-.12,.48-.15,1.08-.15,1.76v12.14h-2.97v-14.34Z"></path><path fill="#fff" d="M1074.79,505.61c.85-.24,1.89-.56,2.51-1.52,.66-1.04,.89-2.48,.89-6.15v-17.22h2.97v18.09c0,4.07-.58,5.95-1.89,7.39-1.12,1.2-2.93,1.8-4.09,1.84l-.39-2.44Zm6.64-29.88c0,1.2-.69,2-1.78,2-1,0-1.74-.8-1.74-2s.77-2,1.77-2,1.74,.8,1.74,2Z"></path><path fill="#fff" d="M1096.68,490.39c0,7.47-3.32,9.99-6.21,9.99-3.36,0-6.06-3.16-6.06-9.95s3.05-9.99,6.25-9.99,6.02,3.24,6.02,9.95Zm-9.3,0c0,3.2,.54,7.55,3.24,7.55,2.55,0,3.09-4.51,3.09-7.55s-.54-7.51-3.16-7.51-3.16,4.55-3.16,7.51Z"></path><path fill="#fff" d="M1111.19,494.78c0,2.12,.12,3.83,.15,5.27h-2.59l-.23-2.04h-.08c-.54,.96-1.97,2.36-3.97,2.36-3.24,0-4.55-2.64-4.55-7.43v-12.22h2.97v11.78c0,3.04,.46,5.27,2.51,5.27,1.74,0,2.51-1.68,2.66-2.56,.12-.52,.15-1.12,.15-1.76v-12.74h2.97v14.06Z"></path><path fill="#fff" d="M1115.32,485.71c0-1.64-.12-3.55-.15-4.99h2.66l.15,3.08h.08c.62-1.84,2.2-3.36,3.94-3.36,.23,0,.42,0,.62,.04v3.12h-.62c-1.89,0-3.28,1.8-3.59,3.99-.08,.52-.12,1.12-.12,1.76v10.7h-2.97v-14.34Z"></path></g></g><g><path fill="#1e3865" d="M1154.28,764.55c10.49,19.21,23.8,26.7,23.8,26.7l55.59,.41s-87.4-41.76-79.39-27.1Z"></path><g><path fill="#ffae73" d="M1195.97,912.93c1.44,1.73,1.61,3.65,.88,5.69,0,0,0,.02-.01,.03-1.35,3.78-5.76,7.98-10.88,12.18-.65,.54-1.24,1.03-1.74,1.48-.13,.12-.27,.24-.39,.36-.1,.09-.2,.19-.3,.28-4.78,4.49-3,5.54-11.58,14.67-9.79,10.4-16.48,10.53-18.38,9.57-1.6-.82,1.71-6.35,5.37-12.56,.18-.3,.35-.6,.53-.91,.49-.83,.97-1.66,1.46-2.49,4.3-7.48,3.23-11.01,2.3-22.19-.76-9.09-13.3-50.83-13.3-50.83l18.65-3.18s5.38,33.21,11.53,38.36c3.29,2.75,6.99,2.81,10.15,4.85,.22,.14,.44,.29,.66,.44,1.8,1.25,3.63,2.54,5.07,4.28Z"></path><path fill="#1e3865" d="M1195.97,912.93c1.44,1.73,1.61,3.65,.88,5.69,0,0,0,.02-.01,.03-1.65,3.78-5.95,7.96-10.89,12.14-.65,.55-1.22,1.05-1.73,1.52-.13,.12-.27,.24-.39,.36-.1,.09-.2,.19-.3,.28-4.78,4.49-3,5.54-11.58,14.67-9.79,10.4-16.48,10.53-18.38,9.57-1.6-.82,1.71-6.35,5.37-12.56,1.9-.7,10.71-4.33,17.42-13.09,5.9-7.69,9.88-17.59,13.9-23.31,.22,.14,.44,.29,.66,.44,1.8,1.25,3.63,2.54,5.07,4.28Z"></path><path fill="#ffae73" d="M1045.86,899.79c-1.19,5.94-9.38,4.89-18.52,2.51-9.14-2.38-6.98,.39-20-1.2-13.02-1.59-16.93-6.65-17.32-8.65-.34-1.78,6.1-2.36,13.01-3.14,.87-.09,1.74-.2,2.62-.3,7.8-.96,13.55-6.12,20.66-10.35,6.74-4,16.86-20.43,16.86-20.43l17.86,1.6s-9.48,14.67-13.15,21.06c-2.16,3.75-2.08,8.74-1.84,12.59,.12,2.09,.24,4.23-.18,6.33Z"></path><path fill="#1e3865" d="M1027.34,902.3c-9.14-2.38-6.98,.39-20-1.2-13.02-1.59-16.93-6.65-17.32-8.65-.34-1.78,6.1-2.36,13.01-3.14l.06,.14s7.78,5.79,18.62,6.14c8.84,.29,18.22-2.27,24.33-2.12,.12,2.09,.24,4.23-.18,6.33-1.19,5.94-9.38,4.89-18.52,2.51Z"></path><path fill="#1e3865" d="M1115.15,782.02l16.39,46.65,21.4,60.91s5.91,.63,11.59-1.01c5.23-1.52,11.25-5.56,11.25-5.56,0,0-5.61-65.27-16.65-102.8-2.83-9.63-6.02-17.43-9.57-21.83-17.37-21.55-34.4,23.65-34.4,23.65Z"></path><path fill="#25468f" d="M1132.64,708.26c10.97-3.57,42.15,1.35,73.47,7.93l6.64-11.16,67.77-4.98s22,51.46,9.54,84.06c-1.83,4.79-6.3,6.78-12.39,6.84h0s-40.42,.74-53.51,.64c-33.68-.25-71.12-24.48-75.98-25.53-7.95-1.71-11.25,14.75-19.33,32-8.08,17.25-75.36,76.09-75.36,76.09,0,0-10.28,.03-14.51-1.65-4.55-1.81-6.21-4.12-6.21-4.12,0,0,75.15-152.06,99.88-160.11Z"></path><path fill="#1e3865" d="M1213.81,608.49c24.02,13.92,72.76,42.77,73.01,42.59,0,0,17.94,7.15,28.19,.21,17.08-11.56,26.42-42.95-4.5-70.25-15.42-13.61-26.41-16.98-27.94-38.55-.83-11.7-16.01-50.41-41.7-47.03-2.15,.28-4.31,.48-6.47,.39-3-.12-7.95,.29-13.05,3.39-14.59,8.84-43.66,103.68-7.54,109.26Z"></path><path fill="#ffae73" d="M1234.1,596.94c-.11,.07,11.84,4.39,19.87,.78,7.55-3.39,13.35-16.17,13.24-16.18-3.43-.19-7.17-3.32-9.92-23.68l-1.46,.53-24.59,8.96s1.72,8.16,2.82,15.92c.92,6.52,1.4,12.76,.06,13.67Z"></path><path fill="#f9924f" d="M1231.23,567.35s1.05,5.72,2.5,13.89c14.11-2.52,20.05-14.98,22.09-22.85l-24.59,8.96Z"></path><path fill="#ffae73" d="M1227.52,575.41s33.59-4.42,30.61-26.03c-2.98-21.61-.65-36.73-22.23-34.83-21.57,1.91-24.6,10.77-25.3,18.23-.7,7.46,8.09,43.22,16.91,42.62Z"></path><path fill="#1e3865" d="M1211.92,520.96s21.35,19.32,35.96,20.97c14.6,1.65,20.17-3.16,20.17-3.16,0,0-8.56-7.46-13.67-19.45-1.5-3.53-4.72-5.97-8.43-6.33-10.43-1.01-30.21-1.58-34.03,7.97Z"></path><path fill="#1e3865" d="M1225.36,519.34s-7.24,7.14-9.54,12.46c-2.22,5.13-2.96,17.44-1.25,22.34,0,0-11.04-22.62-4.63-33.52,6.8-11.56,15.42-1.28,15.42-1.28Z"></path><path fill="#fddbba" d="M1205.49,647.9c.54,70.32-.1,55.62,7.29,62.35,1.78,1.62,6.81,2.61,13.43,3.11,20.82,1.58,57.47-1.7,58.89-5.68,4.9-13.75,1.54-18.06,5.69-39.14,.43-2.24,.97-4.67,1.59-7.31,3.44-14.47,6.73-19.38-4.97-42.76-10.61-21.18-21.67-38.38-22.67-37.77-28.49,17.22-30.68,2.56-30.68,2.56,0,0-28.82,30.33-28.56,64.63Z"></path><path fill="#25468f" d="M1131.54,828.67l21.4,60.91s5.91,.63,11.59-1.01c5.23-1.52,11.25-5.56,11.25-5.56,0,0-5.61-65.27-16.65-102.8l-27.58,48.46Z"></path><path fill="#fddbba" d="M1234.05,583.27s-29.23,4.91-32.75,17.89c-3.52,12.98-24.21,89.32-24.21,89.32,0,0,14.82,2.87,21.73-4.18,6.9-7.05,24.31-65.66,24.31-65.66l10.92-37.37Z"></path><path fill="#f8caa4" d="M1226.21,713.37c20.82,1.58,57.47-1.7,58.89-5.68,4.9-13.75,1.54-18.06,5.69-39.14l-9.85-29.36s1.44,32.62-7.91,41.13c-9.34,8.51-38.15,16.28-42.72,23.41-2.2,3.42-3.66,6.86-4.09,9.63Z"></path><path fill="#ffae73" d="M1250.17,699.83s-20.52-4.89-23.85-3.02c-3.33,1.86-11.48,8.68-12.51,11.06-1.03,2.39,7.4-1.76,10.13-2.5,1.77-.48,6.42,1.23,8.72,2.04,9.68,3.42,15.63,1.74,15.63,1.74l1.88-9.32Z"></path><path fill="#fddbba" d="M1264.75,580.7s27.58,1.96,37.04,15.82c13.32,19.51,39.43,102.43,24.06,113.35-17.3,12.3-78.38,2.68-78.38,2.68,0,0-1.97-9.86,.9-14.6,2.86-4.74,48.92-12.1,51.06-14.28,2.14-2.18-26.25-43.05-26.2-49.64,.05-6.59-8.47-53.34-8.47-53.34Z"></path><path fill="#ffae73" d="M1225.29,702.72s-4.35,5.72-5.76,6.39c-1.42,.68-2.33,.5-2.33,.5l2.94-5.38,5.15-1.51Z"></path><path fill="#ffae73" d="M1226.32,696.8l-12.56,6.2s.53,.91,2.07,.84c1.54-.06,5.44-1.5,5.44-1.5l5.05-5.54Z"></path></g><g><g><polygon fill="#ff912b" points="1222.2 718.39 1123.17 717.67 1093.9 640.77 1192.78 641.5 1222.2 718.39"></polygon><polygon fill="#fc7600" points="1122.03 714.67 1252.8 715.62 1252.78 718.61 1123.17 717.67 1122.03 714.67"></polygon></g><path fill="#fff" d="M1148.43,679.51c-.73-2.7,.79-4.87,3.4-4.86,2.6,.02,5.31,2.22,6.03,4.92,.73,2.7-.79,4.87-3.4,4.86-2.6-.02-5.31-2.22-6.03-4.92Z"></path></g></g><g><rect fill="#d44b40" transform="translate(-220.69 1761.92) rotate(-89.99)" height="300.9" width="61.91" y="840.87" x="739.83"></rect><path fill="#ffebd8" d="M620.32,1022.25l-44.22-19.58-25.72-11.39,26.33-11.65,43.63-19.3s5.82,15.07,5.91,29.25c.14,22.25-5.93,32.66-5.93,32.66Z"></path><path fill="#ffebd8" d="M956.22,980.95v19.57c0,12.04-9.44,21.8-21.07,21.8h-13.92v-61.91h15.15c10.96,0,19.84,9.2,19.84,20.54Z"></path><path fill="#25468f" d="M576.71,979.64c1.09,6.26,2.05,15.84-.61,23.03l-25.72-11.39,26.33-11.65Z"></path></g><g><path fill="#ff912b" d="M685.02,637.99s5.39,24.2,21.1,24.2c13.47,0,31.94-31.51,31.94-31.51l-53.04,7.3Z"></path><path fill="#25468f" d="M865.4,995.5l-10.09,7.18s-48.55-53.55-60.27-104.89c-2.09-9.17-2.94-18.21-2.04-26.78,0,0-.71-2.32-1.95-6.44-.05-.18-.11-.36-.17-.55-.54-1.8-1.19-3.93-1.92-6.33-2.35-7.76-5.59-18.37-9.27-30.46-8.48-27.81-27.89-90.53-36.18-116.62l59.6-22.32s6.77,15.98,16.5,59.4c1.5,5.67,3,11.94,4.4,18.76,1.59,7.73,3.07,16.19,4.31,25.33,2.09,15.48,3.49,32.89,3.57,51.99,.03,7.77-.15,15.83-.6,24.14-.33,6.1,.55,14.22,2.19,23.46,7.51,42.25,31.91,104.11,31.91,104.11Z"></path><path fill="#1e3865" d="M897.15,1021.3h-48.18s-1.8-7.95,1.36-13.37c2.8-4.79,1.73-7.52-.35-11.48,2.18,.92,5.01,1.77,8.12,1.58,2.4-.14,4.94-1.27,7.17-2.61,2.07,2.45,10.95,12.86,13.73,14.93,3.15,2.34,17.19,1.51,18.16,10.95Z"></path><path fill="#1e3865" d="M828.32,791.8l-37.43,72.23c-.54-1.8-1.19-3.93-1.92-6.33-2.35-7.76-5.59-18.37-9.27-30.46-8.48-27.81-27.89-90.53-36.18-116.62l59.6-22.32s6.77,15.98,16.5,59.4c1.5,5.67,3,11.94,4.4,18.76,1.59,7.73,3.07,16.19,4.31,25.33Z"></path><path fill="#1e3865" d="M742.54,1005.69s-3.34,8.47-.19,15.61h26.21s.54-6.44-8.97-13.91c-7.2-5.66-17.05-1.7-17.05-1.7Z"></path><path fill="#2a3967" d="M771.07,454.31c.02-1.35,.69-15.91,22.06-17.2,0,0-10.49,1.56-12.2,6.39,0,0,7.03-6.09,12.9-4.34,5.88,1.76,9.55,12.25,9.66,15.73,.12,3.48-2.86,14.77-6.54,15.82-1.39,.4-3.01,.34-4.48,.12,1.02,1.57,2.03,3.3,3,5.24,8.96,17.92,1.23,39.03-6.04,37.25-4.66-1.14-7.5,7.23-7.5,7.23l-44.85-39.92s15.71-35.83,33.99-26.31Z"></path><path fill="#ffae73" d="M742.87,575.61c4.97,3.57,11.21,6.52,19.04,8.38,29.34,7.02,40.59-18.65,44.81-36.27-4-2.37-7.77-2.89-9.94-3.16-2.12-.26-4.35-.43-6.2-.53-3.29-2.61-8.2-13.3-9.29-29.9l-1.38,.38-23.13,6.55s1.06,7.61,1.58,14.8c.4,5.63,.46,11.01-.57,12.32-1.8,.4-2.89,.67-2.89,.67,0,0,0,0-.01,.02-.31,.53-7.02,11.95-12.03,26.72Z"></path><path fill="#f99352" d="M756.78,521.08s1.06,7.6,1.58,14.8c13.1-1.36,19.18-14.27,21.55-21.35l-23.13,6.55Z"></path><path fill="#ffae73" d="M756.51,532.5s30.16-8.02,25.05-27.39c-5.12-19.36-4.67-33.44-24.14-29.14-19.48,4.3-21.25,12.75-21.06,19.64,.19,6.89,12.18,38.47,20.16,36.89Z"></path><path fill="#2a3967" d="M734.39,484.6c3.1-7.14,6.94-6.86,9.37-5.67,13.94-14,28.17-3.2,28.17-3.2,5.69,13.32,17.48,18.53,17.48,18.53,0,0-4.54,5.05-18.05,5.28-4.13,.07-8.32-1.79-12.16-4.39,7.46,7.41,16.1,11.81,16.1,11.81-16.99-2.93-28.79-22.9-30.01-25.02-1.38,2.22-4.01,6.95-4.15,10.89-.19,5.36,1.83,15.7-1.12,16.16,0,0-10.29-13.68-5.65-24.39Z"></path><path fill="#ffae73" d="M747.84,547.25s50.66-12.73,72.69,6.07l-11.01,158.9-99.08-24.77s2.79-10.05,21.79-36.79c19-26.74,10.73-65.95,15.61-103.41Z"></path><path fill="#25468f" d="M777.37,694.54s-.06,.54-.16,1.56c-.04,.44-.1,.98-.17,1.6-.43,4.12-1.23,12.02-2.27,22.3-2.72,26.95-6.98,70.23-9.89,104.4-2.27,26.71-3.72,47.85-2.94,51.25,2.35,10.22,0,132.33,0,132.33-8.42,4.18-21.19,0-21.19,0,0,0-22.43-110.04-19.29-125.34,3.14-15.29-2.1-28.35-2.1-28.35-17.42-83.94-15.51-130.47-12.05-152.74,1-6.48,2.14-10.9,2.98-13.6,.7-2.29,1.19-3.34,1.19-3.34,38.42-10.7,65.89,9.94,65.89,9.94Z"></path><path fill="#ff912b" d="M827.36,598.65c-2.44,19.12-12.23,42.51-15.72,55.1,0,0,5.84,43.71,.26,55.72-.63,1.37-1.42,2.33-2.38,2.76-20.66,9.31-101.11,.27-104.51-26.59-1.23-9.76,30.65-44.09,32.5-48.26,.77-1.72,1.59-7.31-2.14-18.88-5.3,16.91-34.54,12.04-34.54,12.04,3.43-6.08,11.98-48.13,21.53-67.11,7.18-14.27,26.34-16.33,26.34-16.33,0,0,7.98,13.09,27.27,11.24,19.29-1.86,22.82-14.08,22.82-14.08,0,0,17.11,2.35,22.38,6.76,.91,.76,9.4,22.59,6.19,47.64Z"></path><path fill="#fc7600" d="M811.63,653.75s5.84,43.71,.26,55.72c-15.05-7.82-26.91-28.97-24.17-52.53,2.02-17.42,5.03-21.39,14.04-31.36,6.62-7.32,21.91-7.74,20.71-4.25-3.57,10.38-8.99,25.78-10.84,32.43Z"></path><g><polygon fill="#0d458e" points="748.8 602.05 783.3 659.33 724.6 659.33 691.73 603.29 748.8 602.05"></polygon><polygon fill="#f1ddcb" points="781.5 656.46 782.1 654.46 749.46 600.25 748.8 602.05 781.5 656.46"></polygon><polygon fill="#ffebd8" points="749.46 600.25 694.16 601.88 691.73 603.29 748.8 602.05 749.46 600.25"></polygon><polygon fill="#0b3563" points="691.73 603.29 660.71 585.92 696.87 644.68 724.6 659.33 691.73 603.29"></polygon></g><path fill="#ffae73" d="M855.89,643.43c-3.32,1.57-11.85,11.97-14.9,13.02-13.69,4.74-71.94-7.87-71.94-7.87l1.8-10.56s57.17,1.57,63.46-.17c1.18-.33,7.36-10.33,9.74-11.77l11.83,17.34Z"></path><path fill="#ffae73" d="M770.86,638.02s-6.9-5.81-11.55-4.49c-4.66,1.31-11.51,7.41-14.06,8.86-2.55,1.44-9.46,6.61-5.96,9.73,3.51,3.12,14.42,.44,18.74-1.95,4.32-2.39,11.03-1.58,11.03-1.58l1.8-10.56Z"></path><path fill="#ffae73" d="M760.63,633.34s-8.38-1.03-10.67-.99c-2.29,.05-1.67,.57-.4,2.4,1.26,1.84,5.63,2.54,5.83,3.18,.2,.64,5.24-4.6,5.24-4.6Z"></path><path fill="#ff912b" d="M798.78,544.26s24.85,3.05,31.69,14.08c8.65,13.94,29.07,69.48,28.41,83.47,0,0-14.93,26.29-66.11,22.08,0,0-5.33-19.47,5.44-25.89,0,0,26.29-4.84,29.32-7.6l-21.43-40.31-7.31-45.83Z"></path><path fill="#ffae73" d="M699.68,624.23c-.77-3.24-7.6-1.22-9.9,.65-.56,.45-1.16,1.22-1.75,2.13-.07-.54-.13-1.06-.17-1.47-.13-1.52-1.84-4.25-2.27-2.21-.43,2.04-1.13,10.62-1.13,10.62-.08,6.91,4.21,9.76,6.96,7.51,2.76-2.25,9.01-13.99,8.24-17.23Z"></path></g><path fill="#2d3554" d="M47.43,1021.28H1610.98c1.53,0,2.77,1.24,2.77,2.77h0c0,1.53-1.24,2.77-2.77,2.77H47.43c-1.53,0-2.77-1.24-2.77-2.77h0c0-1.53,1.24-2.77,2.77-2.77Z"></path></g></g></g></svg>